<svg xmlns="http://www.w3.org/2000/svg" width="48" height="48" viewBox="236 232 1582 1582" preserveAspectRatio="xMidYMid meet" version="1.1">
<defs>
	<linearGradient gradientUnits="userSpaceOnUse" id="Gradient1" x1="1168.33" x2="1264.12" y1="882.058" y2="991.841">
		<stop class="stop0" offset="0" stop-color="rgb(78,7,236)" stop-opacity="1"></stop>
		<stop class="stop1" offset="1" stop-color="rgb(148,9,255)" stop-opacity="1"></stop>
	</linearGradient>
	<linearGradient gradientUnits="userSpaceOnUse" id="Gradient2" x1="715.506" x2="805.649" y1="917.336" y2="1206.24">
		<stop class="stop0" offset="0" stop-color="rgb(35,4,86)" stop-opacity="1"></stop>
		<stop class="stop1" offset="1" stop-color="rgb(62,6,206)" stop-opacity="1"></stop>
	</linearGradient>
	<linearGradient gradientUnits="userSpaceOnUse" id="Gradient3" x1="1217.31" x2="1418.13" y1="883.165" y2="1182.21">
		<stop class="stop0" offset="0" stop-color="rgb(80,5,193)" stop-opacity="1"></stop>
		<stop class="stop1" offset="1" stop-color="rgb(196,23,255)" stop-opacity="1"></stop>
	</linearGradient>
	<linearGradient gradientUnits="userSpaceOnUse" id="Gradient4" x1="1078.47" x2="1615.31" y1="926.685" y2="1718.92">
		<stop class="stop0" offset="0" stop-color="rgb(93,4,202)" stop-opacity="1"></stop>
		<stop class="stop1" offset="1" stop-color="rgb(227,38,255)" stop-opacity="1"></stop>
	</linearGradient>
</defs>
<path d="M 279.05 1065.44 C 277.69 967.285 278.981 866.009 278.917 767.62 L 278.787 656.48 C 278.728 611.919 276.495 578.207 286.84 534.102 C 300.261 476.293 329.017 423.17 370.081 380.325 C 431.048 315.928 515.572 279.079 604.246 278.239 C 655.738 277.281 710.901 278.472 762.726 278.376 L 1170.46 278.367 L 1359.5 278.015 C 1409.36 278.133 1461.61 276.042 1510.45 285.948 C 1608.47 305.832 1693.08 374.889 1736.77 464.24 C 1754.24 499.964 1768.31 547.787 1768.96 587.783 C 1770.2 611.801 1770.47 661.148 1769.04 685.347 C 1770.25 706.919 1769.35 737.475 1769.29 759.708 C 1771.33 808.988 1769.96 866.655 1769.93 916.606 L 1769.83 1190.34 L 1769.84 1345.89 C 1769.94 1370.86 1768.78 1400.29 1769.91 1424.48 C 1778.46 1607.56 1631.26 1766.81 1447.68 1770.54 C 1406.62 1771.38 1364.6 1770.76 1323.03 1770.48 L 1135.59 1770.09 L 945.821 1770.16 C 914.236 1770.2 871.185 1771.44 840.574 1769.84 C 830.728 1770.46 814.195 1769.98 803.737 1769.99 L 730.631 1770.08 L 644.918 1770.22 C 622.543 1770.33 575.884 1771.27 554.929 1765.82 C 546.74 1765.68 527.826 1760.73 519.361 1758.44 C 459.202 1741.82 405.153 1708.12 363.759 1661.41 C 315.059 1607.8 285.628 1539.48 280.124 1467.27 C 278.202 1444.03 278.954 1416.5 278.963 1392.92 L 278.964 1277.03 L 278.746 1142.14 C 278.694 1118.35 277.868 1088.76 279.05 1065.44 z" fill="rgb(26,0,80)" transform="translate(0,0)"></path>
<path d="M 1260.75 806.299 L 1260.94 804.289 C 1263.63 801.469 1284.03 794.553 1289.02 790.959 C 1297.35 784.963 1309.92 769.991 1319.76 767.969 C 1330.76 765.71 1332.2 761.813 1341.28 756.18 C 1350.57 752.284 1363.49 747.001 1373.29 744.233 C 1375.19 743.499 1378.39 739.628 1380.15 739.106 C 1393.9 735.007 1405.97 728.972 1418.98 723.429 C 1427.77 720.109 1442.36 719.636 1450.57 716.388 C 1497.85 697.696 1547.42 685.061 1598.5 684.557 C 1608.18 683.705 1617.91 682.07 1627.53 680.875 C 1670.18 675.578 1726.07 676.165 1766.34 662.349 C 1768 666.123 1767.89 678.165 1768.71 683.35 L 1769.04 685.347 C 1770.25 706.919 1769.35 737.475 1769.29 759.708 C 1771.33 808.988 1769.96 866.655 1769.93 916.606 L 1769.83 1190.34 L 1769.84 1345.89 C 1769.94 1370.86 1768.78 1400.29 1769.91 1424.48 C 1778.46 1607.56 1631.26 1766.81 1447.68 1770.54 C 1406.62 1771.38 1364.6 1770.76 1323.03 1770.48 L 1135.59 1770.09 L 945.821 1770.16 C 914.236 1770.2 871.185 1771.44 840.574 1769.84 L 846.522 1768.5 L 846.699 1767.63 C 844.034 1767.36 838.346 1768.45 835.346 1768.3 C 823.906 1767.71 791.068 1769.11 781.794 1766.98 L 785.285 1765.96 C 785.601 1761.55 791.191 1765.6 790.259 1761.95 C 785.7 1744.11 801.305 1737.15 803.688 1721.8 C 805.685 1708.94 804.347 1693.54 805.773 1680.52 C 808.526 1655.41 808.646 1631.4 807.273 1606.25 C 806.685 1593.79 810.916 1579.7 811.871 1567.92 C 814.966 1529.74 822.423 1492.59 843.449 1459.91 C 846.846 1454.63 849.385 1447.47 853.053 1442.41 L 854.994 1443.07 C 857.87 1438.28 860.935 1433.6 864.182 1429.06 C 867.596 1424.19 866.97 1424.16 871.394 1423.37 C 872.649 1416.98 899.542 1376.66 904.519 1368.38 C 925.243 1333.89 942.819 1295.43 969.468 1265.11 C 977.463 1256.01 985.104 1250.34 991.485 1239.61 L 991.924 1238.86 C 1001.3 1237.88 997.504 1235.59 1003.97 1231.04 C 1015.39 1223.01 1024.7 1213.2 1035.61 1204.68 C 1037.06 1203.55 1043.9 1199.02 1045.03 1198.91 C 1053.82 1198.02 1058.09 1191.2 1065.94 1188.87 C 1071.28 1187.43 1075.91 1183.99 1080.38 1180.55 C 1087.6 1174.7 1096.44 1170.41 1103.32 1164.28 C 1108.99 1159.23 1117.89 1146.75 1124.03 1143.09 C 1126.35 1146.96 1127.84 1149.97 1131.09 1153.11 L 1132.58 1152.74 C 1134.53 1154.05 1142.14 1164.3 1144.5 1166.98 C 1164 1189.12 1187.85 1209.57 1211.9 1226.91 C 1364.09 1336.62 1569.98 1191.67 1539.44 1012.12 C 1565.96 1003.98 1616.86 992.919 1597.75 953.495 C 1593.94 945.636 1590.66 940.125 1583.81 934.331 C 1567.98 928.467 1514.35 920.927 1494.58 917.522 C 1477.27 885.558 1452.58 858.189 1422.56 837.693 C 1373.38 804.502 1318.42 794.979 1260.75 806.299 z" fill="url(#Gradient4)" transform="translate(0,0)"></path>
<path d="M 971.808 988.396 C 988.844 954.628 1034.85 927.825 1073.19 942.721 C 1085.12 947.356 1089.54 961.965 1093.99 973.24 C 1085.67 1018.93 1087.21 1042.94 1098.57 1087.03 C 1103.72 1100.14 1108.47 1112.89 1115.25 1125.31 C 1120.21 1134.41 1127.86 1144.1 1132.58 1152.74 L 1131.09 1153.11 C 1127.84 1149.97 1126.35 1146.96 1124.03 1143.09 C 1117.89 1146.75 1108.99 1159.23 1103.32 1164.28 C 1096.44 1170.41 1087.6 1174.7 1080.38 1180.55 C 1075.91 1183.99 1071.28 1187.43 1065.94 1188.87 C 1058.09 1191.2 1053.82 1198.02 1045.03 1198.91 C 1043.9 1199.02 1037.06 1203.55 1035.61 1204.68 C 1024.7 1213.2 1015.39 1223.01 1003.97 1231.04 C 997.504 1235.59 1001.3 1237.88 991.924 1238.86 L 991.485 1239.61 C 985.104 1250.34 977.463 1256.01 969.468 1265.11 C 942.819 1295.43 925.243 1333.89 904.519 1368.38 C 899.542 1376.66 872.649 1416.98 871.394 1423.37 C 866.97 1424.16 867.596 1424.19 864.182 1429.06 C 860.935 1433.6 857.87 1438.28 854.994 1443.07 L 853.053 1442.41 C 849.385 1447.47 846.846 1454.63 843.449 1459.91 C 822.423 1492.59 814.966 1529.74 811.871 1567.92 C 810.916 1579.7 806.685 1593.79 807.273 1606.25 C 808.646 1631.4 808.526 1655.41 805.773 1680.52 C 804.347 1693.54 805.685 1708.94 803.688 1721.8 C 801.305 1737.15 785.7 1744.11 790.259 1761.95 C 791.191 1765.6 785.601 1761.55 785.285 1765.96 L 781.794 1766.98 C 791.068 1769.11 823.906 1767.71 835.346 1768.3 C 838.346 1768.45 844.034 1767.36 846.699 1767.63 L 846.522 1768.5 L 840.574 1769.84 C 830.728 1770.46 814.195 1769.98 803.737 1769.99 L 730.631 1770.08 L 644.918 1770.22 C 622.543 1770.33 575.884 1771.27 554.929 1765.82 C 546.74 1765.68 527.826 1760.73 519.361 1758.44 C 459.202 1741.82 405.153 1708.12 363.759 1661.41 C 315.059 1607.8 285.628 1539.48 280.124 1467.27 C 278.202 1444.03 278.954 1416.5 278.963 1392.92 L 278.964 1277.03 L 278.746 1142.14 C 278.694 1118.35 277.868 1088.76 279.05 1065.44 C 283.625 1033.86 281.032 1001.89 280.598 970.12 C 280.534 965.422 279.599 946.544 281.43 943.128 C 282.458 946.863 287.096 951.208 290.599 952.893 C 298.649 953.236 309.129 953.981 316.958 953.354 C 325.628 952.659 339.938 947.753 348.516 948.524 C 369.052 950.505 389.059 955.893 409.178 960.246 C 421.622 962.938 420.561 967.978 435.489 963.701 C 445.5 960.832 441.734 965.012 449.552 955.476 C 451.111 957.352 450.244 955.638 450.494 957.964 C 451.422 963.095 457.273 968.029 460.882 971.046 C 466.569 975.8 480.581 980.736 485.631 984.769 C 490.378 988.56 519.438 1001.65 520.534 1002.9 C 516.726 1015.22 523.802 1068.69 528.942 1081.56 L 529.964 1082.08 L 530.344 1081.73 C 553.35 1143.75 572.53 1169.63 627.169 1210.36 C 646.344 1224.65 660.066 1235.78 682.934 1246.26 C 731.167 1268.2 786.101 1270.28 835.853 1252.04 C 890.465 1231.54 936.702 1186.26 960.519 1133.13 C 982.299 1084.54 981.486 1039.37 971.808 988.396 z" fill="rgb(64,4,213)" transform="translate(0,0)"></path>
<path d="M 1098.57 1087.03 C 1103.72 1100.14 1108.47 1112.89 1115.25 1125.31 C 1120.21 1134.41 1127.86 1144.1 1132.58 1152.74 L 1131.09 1153.11 C 1127.84 1149.97 1126.35 1146.96 1124.03 1143.09 C 1117.89 1146.75 1108.99 1159.23 1103.32 1164.28 C 1096.44 1170.41 1087.6 1174.7 1080.38 1180.55 C 1075.91 1183.99 1071.28 1187.43 1065.94 1188.87 C 1058.09 1191.2 1053.82 1198.02 1045.03 1198.91 C 1043.9 1199.02 1037.06 1203.55 1035.61 1204.68 C 1024.7 1213.2 1015.39 1223.01 1003.97 1231.04 C 997.504 1235.59 1001.3 1237.88 991.924 1238.86 L 991.485 1239.61 C 985.104 1250.34 977.463 1256.01 969.468 1265.11 C 942.819 1295.43 925.243 1333.89 904.519 1368.38 C 899.542 1376.66 872.649 1416.98 871.394 1423.37 C 866.97 1424.16 867.596 1424.19 864.182 1429.06 C 860.935 1433.6 857.87 1438.28 854.994 1443.07 L 853.053 1442.41 C 849.385 1447.47 846.846 1454.63 843.449 1459.91 C 822.423 1492.59 814.966 1529.74 811.871 1567.92 C 810.916 1579.7 806.685 1593.79 807.273 1606.25 C 808.646 1631.4 808.526 1655.41 805.773 1680.52 C 804.347 1693.54 805.685 1708.94 803.688 1721.8 C 801.305 1737.15 785.7 1744.11 790.259 1761.95 C 791.191 1765.6 785.601 1761.55 785.285 1765.96 L 781.794 1766.98 C 791.068 1769.11 823.906 1767.71 835.346 1768.3 C 838.346 1768.45 844.034 1767.36 846.699 1767.63 L 846.522 1768.5 L 840.574 1769.84 C 830.728 1770.46 814.195 1769.98 803.737 1769.99 L 730.631 1770.08 L 644.918 1770.22 C 622.543 1770.33 575.884 1771.27 554.929 1765.82 C 559.986 1763.26 588.179 1769.27 597.087 1768.54 C 609.581 1767.52 625.796 1765.69 638.712 1764.65 C 642.34 1764.37 639.747 1762.32 640.954 1758.99 C 642.684 1760.76 642.903 1760.71 645.135 1761.87 L 646.152 1761.25 C 646.344 1759.01 646.377 1758.94 647.094 1756.81 C 648.017 1757.69 648.548 1758.71 649.185 1759.81 C 649.925 1758.76 650.688 1757.73 651.473 1756.72 C 662.074 1756.44 657.424 1750.85 661.592 1749.88 C 670.539 1747.78 682.453 1743.94 687.96 1735.56 C 689.578 1733.09 688.791 1732.64 691.916 1730.75 L 693.209 1732.63 C 695.674 1731.55 700.935 1724.16 704.453 1721 C 725.88 1720.2 715.096 1691.68 726.939 1683.62 C 729.395 1683.51 731.368 1683.37 733.813 1683.11 C 737.669 1678.45 735.975 1674.17 739.511 1669.17 C 750.48 1664.27 743.314 1649.94 746.083 1640.18 C 753.399 1614.42 761.752 1589.74 766.068 1563.21 C 770.999 1532.89 781.034 1502.88 787.707 1472.83 C 789.327 1465.69 799.165 1450.13 802.109 1442.27 C 809.242 1423.23 819.418 1405.31 830.103 1388.1 C 837.882 1375.55 843.233 1356.42 852.59 1345.02 C 850.807 1342.98 851.872 1343.83 848.873 1343.08 L 848.351 1341.5 C 854.681 1335.89 855.81 1327.89 858.539 1319.91 C 857.535 1318.06 857.093 1317.4 855.832 1315.78 L 854.666 1314.3 C 855.862 1309.83 856.996 1305.45 858.391 1301.03 L 861.782 1301.76 C 863.083 1299.42 863.121 1297.04 864.473 1294.91 C 867.798 1289.67 873.2 1286.33 872.955 1279.48 L 873.197 1280.56 C 870.869 1273.81 871.61 1280.97 868.929 1276.23 C 872.149 1270.42 873.318 1268.59 877.407 1263.39 L 878.148 1264.15 L 878.646 1266.01 C 878.391 1255.14 886.141 1253.5 892.805 1246.76 C 898.759 1240.74 907.4 1226.49 913.444 1221.62 L 914.61 1222.45 L 912.344 1225.47 L 912.891 1226.34 C 917.055 1226.19 924.738 1220.46 928.254 1217.94 L 931.049 1219.62 C 937.16 1216.63 964.788 1191.46 969.519 1189.84 C 980.954 1186.08 991.489 1177.91 1003.67 1176.25 C 1014.26 1174.81 1028.56 1160.71 1039.47 1162.39 C 1049.8 1151.37 1090.89 1135.59 1109.39 1120.55 C 1109.89 1113.8 1095.75 1093.41 1098.57 1087.03 z" fill="rgb(107,33,255)" transform="translate(0,0)"></path>
<path d="M 554.781 917.562 C 565.295 895.689 579.872 876.014 597.735 859.586 C 639.277 820.225 694.844 799.129 752.041 801.002 C 812.536 803.208 864.472 835.409 904.641 878.749 C 907.285 883.184 916.239 894.411 919.855 899.909 C 928.425 912.943 933.328 922.395 940.397 936.157 C 964.043 906.731 995.327 890.052 1033.47 895.023 C 1064.56 899.075 1088.09 916.145 1102.36 943.73 C 1107.98 933.986 1112.88 923.303 1118.65 913.421 C 1142.98 871.711 1178.56 837.575 1223.14 818.397 C 1234.85 813.36 1248.47 809.608 1260.75 806.299 C 1318.42 794.979 1373.38 804.502 1422.56 837.693 C 1452.58 858.189 1477.27 885.558 1494.58 917.522 C 1514.35 920.927 1567.98 928.467 1583.81 934.331 C 1590.66 940.125 1593.94 945.636 1597.75 953.495 C 1616.86 992.919 1565.96 1003.98 1539.44 1012.12 C 1569.98 1191.67 1364.09 1336.62 1211.9 1226.91 C 1187.85 1209.57 1164 1189.12 1144.5 1166.98 C 1142.14 1164.3 1134.53 1154.05 1132.58 1152.74 C 1127.86 1144.1 1120.21 1134.41 1115.25 1125.31 C 1108.47 1112.89 1103.72 1100.14 1098.57 1087.03 C 1087.21 1042.94 1085.67 1018.93 1093.99 973.24 C 1089.54 961.965 1085.12 947.356 1073.19 942.721 C 1034.85 927.825 988.844 954.628 971.808 988.396 C 981.486 1039.37 982.299 1084.54 960.519 1133.13 C 936.702 1186.26 890.465 1231.54 835.853 1252.04 C 786.101 1270.28 731.167 1268.2 682.934 1246.26 C 660.066 1235.78 646.344 1224.65 627.169 1210.36 C 572.53 1169.63 553.35 1143.75 530.344 1081.73 C 524.365 1054.3 520.593 1029.09 522.642 1000.82 C 502.556 993.044 485.508 981.8 466.056 971.755 C 450.094 963.511 446.641 942.006 464.409 934.105 C 475.057 929.371 493.978 927.626 506.199 925.698 C 522.421 923.158 538.616 920.446 554.781 917.562 z" fill="rgb(255,255,255)" transform="translate(0,0)"></path>
<path d="M 1135.13 1072.04 C 1133.81 1059.65 1133.53 1047.16 1134.31 1034.72 C 1138.67 980.314 1164.18 929.779 1205.37 893.955 C 1265.55 841.905 1349.48 826.908 1420.24 867.744 C 1430.94 873.922 1440.74 880.267 1448.9 889.69 C 1461.84 901.347 1471.48 920.302 1479.93 935.416 L 1490.5 938.748 C 1491.98 944.009 1496.44 958.244 1496.49 963.011 C 1496.66 979.733 1500.18 997.181 1500.65 1013.55 C 1501.67 1048.5 1491.64 1088.05 1474.58 1118.61 C 1448.89 1164.68 1406.03 1198.72 1355.34 1213.3 C 1306.96 1227.05 1255.08 1220.82 1211.33 1196 C 1172.88 1174.15 1152.87 1145.63 1141.26 1102.89 C 1138.57 1092.75 1136.53 1082.44 1135.13 1072.04 z" fill="url(#Gradient3)" transform="translate(0,0)"></path>
<path d="M 589.484 967.153 C 600.206 939.118 622.534 911.835 644.399 892.475 C 704.873 838.929 798.542 825.789 865.925 874.452 C 872.785 879.406 879.97 883.23 885.67 889.767 C 913.26 914.501 933.503 971.03 935.562 1007.58 C 941.764 1117.69 860.884 1214.88 748.796 1219.84 C 703.224 1221.85 652.05 1209.12 616.907 1177.39 C 589.157 1151.57 572.123 1099.06 570.629 1061.75 C 569.521 1034.08 575.77 991.127 589.484 967.153 z" fill="url(#Gradient2)" transform="translate(0,0)"></path>
<path d="M 589.484 967.153 C 600.206 939.118 622.534 911.835 644.399 892.475 C 704.873 838.929 798.542 825.789 865.925 874.452 C 872.785 879.406 879.97 883.23 885.67 889.767 C 882.472 889.303 883.642 890.086 881.692 888.056 L 880.521 888.355 C 879.458 891.131 874.386 906.516 873.215 907.081 L 870.118 906.477 C 865.113 910.114 852.255 920.697 846.637 922.609 C 817.118 932.654 784.309 937.872 753.667 944.216 C 740.435 946.955 733.022 944.758 719.466 950.484 C 700.856 958.345 663.526 959.759 642.704 960.723 C 634.932 961.082 613.764 952.979 606.143 956.249 C 603.161 957.528 600.756 955.556 597.487 953.926 C 595.616 958.146 593.093 964.3 589.484 967.153 z" fill="rgb(26,0,80)" transform="translate(0,0)"></path>
<path d="M 947.797 960.306 C 968.38 925.137 1007.87 904.875 1047.64 919.796 C 1055.61 922.411 1059.96 925.419 1066.8 929.887 C 1057.05 928.822 1047.21 928.38 1037.5 930.07 C 1035.79 930.368 1034.11 930.622 1032.37 930.656 C 1001.06 939.434 979.063 956.12 962.948 984.717 C 962.553 985.419 962.166 986.127 961.788 986.839 C 964.831 1000.9 967.938 1014.48 969.426 1028.9 C 979.699 1128.39 905.914 1229.44 808.312 1250.46 C 769.392 1258.84 724.331 1255.64 688.013 1238.37 L 689.787 1235.27 C 722.745 1243.32 757.152 1243.34 790.124 1235.35 C 913.065 1205.41 977.611 1080.44 947.797 960.306 z" fill="rgb(107,33,255)" transform="translate(0,0)"></path>
<path d="M 1047.64 919.796 C 1055.61 922.411 1059.96 925.419 1066.8 929.887 C 1057.05 928.822 1047.21 928.38 1037.5 930.07 C 1035.79 930.368 1034.11 930.622 1032.37 930.656 C 1032.9 925.528 1055.22 928.065 1056.06 925.698 C 1053.93 923.592 1051.43 925.076 1047.64 919.796 z" fill="rgb(64,4,213)" transform="translate(0,0)"></path>
<path d="M 1517.47 981.824 C 1535.1 981.179 1554.07 980.714 1571.39 976.67 C 1575.82 975.637 1586.16 968.821 1590.55 968.019 C 1596.75 988.452 1555.91 997.259 1541.46 1001.43 C 1537.53 1002.57 1533.57 1003.6 1529.58 1004.54 C 1552.76 1125.25 1463.81 1249.53 1338.22 1254.97 C 1309.46 1256.22 1278.35 1251.04 1251.92 1239.31 C 1248.91 1238.45 1238.29 1232.43 1235.26 1230.74 C 1239.82 1231.84 1266.42 1237.44 1268.77 1238.67 C 1330.77 1245.48 1384.19 1237.23 1434.35 1196.81 C 1482.6 1158.29 1513.57 1102.17 1520.43 1040.8 C 1522.93 1017.18 1521.19 1004.76 1517.47 981.824 z" fill="rgb(179,18,252)" transform="translate(0,0)"></path>
<path d="M 1235.26 1230.74 C 1239.82 1231.84 1266.42 1237.44 1268.77 1238.67 C 1264.66 1238.39 1250.87 1234.72 1251.92 1239.31 C 1248.91 1238.45 1238.29 1232.43 1235.26 1230.74 z" fill="rgb(185,68,236)" transform="translate(0,0)"></path>
<path d="M 1135.62 1117.75 C 1108.21 1077.84 1103.84 1012.99 1117.16 967.511 C 1132.85 915.631 1168.06 871.863 1215.37 845.427 C 1265.29 818.155 1311.26 816.615 1364.46 831.992 L 1362.2 837.261 C 1336.07 833.899 1315.13 833.669 1289.07 839.834 C 1189.69 863.343 1116.82 963.91 1125.75 1065.79 C 1127.37 1084.27 1131.37 1100.03 1135.62 1117.75 z" fill="url(#Gradient1)" transform="translate(0,0)"></path>
<path d="M 566.614 935.369 C 588.542 898.071 608.563 870.437 647.359 847.686 C 681.707 827.545 736.893 815.052 776.067 825.624 C 792.038 827.18 812.365 834.944 825.888 843.713 C 802.004 837.665 789.812 835.343 765.289 834.635 C 746.323 835.002 724.443 839.825 706.651 846.069 C 652.657 865.572 608.524 905.565 583.815 957.383 C 551.253 966.057 538.348 962.758 506.125 958.645 C 493.881 957.082 483.316 956.441 470.966 953.39 C 499.465 947.682 540.086 942.198 566.614 935.369 z" fill="rgb(64,4,213)" transform="translate(0,0)"></path>
<path d="M 776.067 825.624 C 792.038 827.18 812.365 834.944 825.888 843.713 C 802.004 837.665 789.812 835.343 765.289 834.635 C 766.441 833.569 774.31 832.399 775.999 832.523 C 782.111 832.973 789.899 834.492 795.978 834.904 C 809.847 835.844 790.189 830.552 788.523 830.142 L 782.524 828.647 C 780.429 828.139 779.328 828.076 777.585 826.773 L 776.067 825.624 z" fill="rgb(107,33,255)" transform="translate(0,0)"></path>
<path d="M 577.793 968.365 C 579.166 969.301 579.035 968.69 578.564 970.033 C 573.179 985.375 568.294 999.892 565.198 1015.9 C 556.997 1058.29 563.096 1089.26 575.715 1129.21 C 573.329 1126.37 571.181 1123.03 569.084 1119.95 C 540.816 1071.17 541.529 1026.77 545.845 973.168 C 556.667 972.261 567.105 970.24 577.793 968.365 z" fill="rgb(64,4,213)" transform="translate(0,0)"></path>
<path d="M 1500.6 939.707 C 1502.18 940.093 1503.93 940.572 1505.51 940.85 L 1511.01 941.873 C 1526.37 944.509 1541.49 948.074 1557 950.023 C 1561.9 950.639 1567.37 950.852 1571.92 952.467 C 1570.63 953.114 1569.4 953.788 1568.06 954.314 C 1546.83 958.887 1528.3 959.57 1506.64 960.036 C 1505.08 954.192 1502.52 945.45 1500.6 939.707 z" fill="rgb(179,18,252)" transform="translate(0,0)"></path>
<path d="M 504.133 982.306 C 503.182 981.784 502.114 981.431 501.787 980.482 C 502.495 979.17 512.817 980.11 514.687 980.742 C 516.002 980.756 531.219 977.778 523.689 990.684 C 522.704 992.372 507.641 984.149 504.133 982.306 z" fill="rgb(64,4,213)" transform="translate(0,0)"></path>
<path d="M 1364.46 831.992 C 1371.57 834.463 1377.51 836.49 1384.41 839.66 L 1382.45 841.514 C 1375.48 839.963 1369.25 838.48 1362.2 837.261 L 1364.46 831.992 z" fill="rgb(107,33,255)" transform="translate(0,0)"></path>
<path d="M 677.181 1232.07 C 681.41 1233.21 685.501 1234.35 689.787 1235.27 L 688.013 1238.37 C 684.401 1236.64 680.626 1234.17 677.181 1232.07 z" fill="rgb(64,4,213)" transform="translate(0,0)"></path>
<path d="M 1384.41 839.66 C 1385.3 840.107 1388.17 841.193 1388.43 842.328 C 1387.93 843.05 1383.37 841.704 1382.45 841.514 L 1384.41 839.66 z" fill="rgb(120,90,185)" transform="translate(0,0)"></path>
<path d="M 904.641 878.749 C 905.34 878.115 904.866 878.432 906.221 878.086 C 914.052 887.492 926.426 904.252 931.742 915.403 C 934.743 921.699 935.391 924.72 940.554 930.613 C 942.38 930.766 956.262 917.079 959.515 914.28 C 986.934 890.682 1024.64 886.915 1057.67 899.259 C 1059.63 899.994 1060.59 900.705 1063 901.441 C 1066.45 898.611 1084.9 880.237 1087.74 876.931 C 1111.84 848.905 1138.72 821.827 1168.73 800.158 C 1176.95 794.223 1188.99 790.124 1196.01 782.633 C 1206.36 770.055 1219.04 756.332 1232.73 747.122 C 1247.48 741.257 1251.48 732.965 1262.62 726.244 C 1273.93 719.886 1283.41 711.024 1294.22 704.253 C 1315.74 690.775 1343.38 683.353 1366.62 672.838 C 1370.86 671.962 1379.11 665.928 1382.88 665.356 C 1399.26 662.875 1416.48 656.48 1432.62 652.585 C 1469.65 643.91 1507.29 638.041 1545.21 635.026 C 1573.83 632.83 1757.16 627.505 1767.73 621.32 C 1771.38 615.422 1764.44 600.379 1767.52 587.409 L 1768.96 587.783 C 1770.2 611.801 1770.47 661.148 1769.04 685.347 L 1768.71 683.35 C 1767.89 678.165 1768 666.123 1766.34 662.349 C 1726.07 676.165 1670.18 675.578 1627.53 680.875 C 1617.91 682.07 1608.18 683.705 1598.5 684.557 C 1547.42 685.061 1497.85 697.696 1450.57 716.388 C 1442.36 719.636 1427.77 720.109 1418.98 723.429 C 1405.97 728.972 1393.9 735.007 1380.15 739.106 C 1378.39 739.628 1375.19 743.499 1373.29 744.233 C 1363.49 747.001 1350.57 752.284 1341.28 756.18 C 1332.2 761.813 1330.76 765.71 1319.76 767.969 C 1309.92 769.991 1297.35 784.963 1289.02 790.959 C 1284.03 794.553 1263.63 801.469 1260.94 804.289 L 1260.75 806.299 C 1248.47 809.608 1234.85 813.36 1223.14 818.397 C 1178.56 837.575 1142.98 871.711 1118.65 913.421 C 1112.88 923.303 1107.98 933.986 1102.36 943.73 C 1088.09 916.145 1064.56 899.075 1033.47 895.023 C 995.327 890.052 964.043 906.731 940.397 936.157 C 933.328 922.395 928.425 912.943 919.855 899.909 C 916.239 894.411 907.285 883.184 904.641 878.749 z" fill="rgb(56,6,131)" transform="translate(0,0)"></path>
<metadata><recraft-signature>{"signed_by": "recraft", "signature_b64": "8n/tOjZoVXe2g6ENUE9SzY2BsKp26K6relyo5/DiZDHaaezLky++GCPNvSQrcYvFXb3OTBonMn6EMD5Mvh6gAw==", "signing_algo": "Ed25519", "generation_timestamp": 1776628452, "identifier": "464498ef-3092-4cc7-912d-22a4e42cfe2e"}</recraft-signature></metadata></svg>